<?xml version="1.0" encoding="UTF-8"?>
<svg xmlns="http://www.w3.org/2000/svg" width="1280" height="900" viewBox="0 0 1280 900">
  <rect width="1280" height="900" fill="#ebebeb"/>
  <rect x="14" y="14" width="1260" height="876" rx="12" fill="#c0c0c0"/>
  <rect x="10" y="10" width="1260" height="876" rx="10" fill="white" stroke="#aaaaaa" stroke-width="1.5"/>
  <rect x="10" y="10" width="1260" height="40" rx="10" fill="#dcdcdc"/>
  <rect x="10" y="36" width="1260" height="14" fill="#dcdcdc"/>
  <circle cx="36" cy="30" r="7" fill="white" stroke="#aaa" stroke-width="1.5"/>
  <line x1="32" y1="26" x2="40" y2="34" stroke="#bbb" stroke-width="1.5"/>
  <line x1="40" y1="26" x2="32" y2="34" stroke="#bbb" stroke-width="1.5"/>
  <circle cx="58" cy="30" r="7" fill="white" stroke="#aaa" stroke-width="1.5"/>
  <line x1="54" y1="30" x2="62" y2="30" stroke="#bbb" stroke-width="1.5"/>
  <circle cx="80" cy="30" r="7" fill="white" stroke="#aaa" stroke-width="1.5"/>
  <line x1="76" y1="30" x2="84" y2="30" stroke="#bbb" stroke-width="1.5"/>
  <line x1="80" y1="26" x2="80" y2="34" stroke="#bbb" stroke-width="1.5"/>
  <rect x="100" y="15" width="200" height="30" rx="5" fill="white" stroke="#cccccc" stroke-width="1"/>
  <text x="200" y="34" text-anchor="middle" font-family="Arial,sans-serif" font-size="12" fill="#444">Edit FAQs – InteractiveAvatar</text>
  <rect x="10" y="50" width="1260" height="44" fill="#f5f5f5"/>
  <rect x="22" y="60" width="26" height="24" rx="4" fill="#e8e8e8" stroke="#cccccc" stroke-width="1"/>
  <text x="35" y="77" text-anchor="middle" font-family="Arial,sans-serif" font-size="16" fill="#666">&#8592;</text>
  <rect x="52" y="60" width="26" height="24" rx="4" fill="#e8e8e8" stroke="#cccccc" stroke-width="1"/>
  <text x="65" y="77" text-anchor="middle" font-family="Arial,sans-serif" font-size="16" fill="#cccccc">&#8594;</text>
  <rect x="90" y="58" width="1068" height="28" rx="14" fill="white" stroke="#d0d0d0" stroke-width="1"/>
  <rect x="104" y="67" width="8" height="7" rx="1" fill="none" stroke="#999" stroke-width="1"/>
  <path d="M106 67 a2 2 0 0 1 4 0" fill="none" stroke="#999" stroke-width="1"/>
  <text x="624" y="76" text-anchor="middle" font-family="Arial,sans-serif" font-size="13" fill="#555">localhost:5000/editQA</text>
  <line x1="10" y1="94" x2="1270" y2="94" stroke="#e0e0e0" stroke-width="1"/>
  <rect x="10" y="94" width="1260" height="48" fill="#222222" stroke="none"/>
  <text x="30" y="123" font-family="Arial,sans-serif" font-size="13" font-weight="normal" fill="#999999">Home</text>
  <text x="86" y="123" font-family="Arial,sans-serif" font-size="13" font-weight="normal" fill="#999999">Create FAQ</text>
  <line x1="190" y1="138" x2="253" y2="138" stroke="white" stroke-width="2"/>
  <text x="190" y="123" font-family="Arial,sans-serif" font-size="13" font-weight="bold" fill="white">Edit FAQs</text>
  <text x="286" y="123" font-family="Arial,sans-serif" font-size="13" font-weight="normal" fill="#999999">Test FAQs</text>
  <text x="1060" y="123" font-family="Arial,sans-serif" font-size="14" font-weight="bold" fill="white">InteractiveAvatar</text>
  <rect x="18" y="148" width="720" height="730" rx="4" fill="#ffffff" stroke="#dddddd" stroke-width="1"/>
  <text x="32" y="176" font-family="Arial,sans-serif" font-size="15" font-weight="bold" fill="#222222">Manage Topics</text>
  <rect x="32" y="198" width="692" height="32" rx="4" fill="white" stroke="#cccccc" stroke-width="1"/>
  <text x="42" y="218" font-family="Arial,sans-serif" font-size="12" fill="#bbbbbb">Search topics to edit/delete…</text>
  <text x="32" y="258" font-family="Arial,sans-serif" font-size="15" font-weight="bold" fill="#222222">Topic: Sample FAQ Topic</text>
  <text x="32" y="274" font-family="Arial,sans-serif" font-size="11" fill="#555555">Current Avatar:</text>
  <rect x="32" y="288" width="120" height="130" rx="6" fill="#f0f0f0" stroke="#cccccc" stroke-width="1"/>
  <line x1="32" y1="288" x2="152" y2="418" stroke="#e0e0e0" stroke-width="1.5"/>
  <line x1="152" y1="288" x2="32" y2="418" stroke="#e0e0e0" stroke-width="1.5"/>
  <text x="92" y="344" text-anchor="middle" font-family="Arial,sans-serif" font-size="12" fill="#aaaaaa">Avatar</text>
  <text x="92" y="362" text-anchor="middle" font-family="Arial,sans-serif" font-size="12" fill="#aaaaaa">Image</text>
  <text x="168" y="288" font-family="Arial,sans-serif" font-size="11" fill="#555555">Video Generation Prompt:</text>
  <rect x="168" y="302" width="542" height="116" rx="4" fill="white" stroke="#cccccc" stroke-width="1"/>
  <text x="178" y="320" font-family="Arial,sans-serif" font-size="12" fill="#bbbbbb">Describe how the avatar should look…</text>
  <rect x="32" y="434" width="184" height="32" rx="5" fill="#e8e8e8" stroke="#cccccc" stroke-width="1"/>
  <text x="124" y="454" text-anchor="middle" font-family="Arial,sans-serif" font-size="13" fill="#444444">Resume All Missing</text>
  <rect x="228" y="434" width="172" height="32" rx="5" fill="#e8e8e8" stroke="#cccccc" stroke-width="1"/>
  <text x="314" y="454" text-anchor="middle" font-family="Arial,sans-serif" font-size="13" fill="#444444">Delete Entire Topic</text>
  <rect x="32" y="482" width="180" height="30" rx="5" fill="#e8e8e8" stroke="#cccccc" stroke-width="1"/>
  <text x="122" y="501" text-anchor="middle" font-family="Arial,sans-serif" font-size="11" fill="#444444">+ Add question-answer</text>
  <rect x="32" y="520" width="706" height="30" fill="#e8e8e8" stroke="#cccccc" stroke-width="1"/>
  <text x="40" y="539" font-family="Arial,sans-serif" font-size="11" font-weight="bold" fill="#333333">Question</text>
  <line x1="252" y1="520" x2="252" y2="550" stroke="#cccccc" stroke-width="1"/>
  <text x="260" y="539" font-family="Arial,sans-serif" font-size="11" font-weight="bold" fill="#333333">Answer</text>
  <line x1="522" y1="520" x2="522" y2="550" stroke="#cccccc" stroke-width="1"/>
  <text x="530" y="539" font-family="Arial,sans-serif" font-size="11" font-weight="bold" fill="#333333">Video</text>
  <line x1="622" y1="520" x2="622" y2="550" stroke="#cccccc" stroke-width="1"/>
  <text x="630" y="539" font-family="Arial,sans-serif" font-size="11" font-weight="bold" fill="#333333">Actions</text>
  <rect x="32" y="550" width="706" height="28" fill="#fafafa" stroke="#eeeeee" stroke-width="1"/>
  <text x="40" y="568" font-family="Arial,sans-serif" font-size="11" fill="#555555">What is your name?</text>
  <line x1="252" y1="550" x2="252" y2="578" stroke="#eeeeee" stroke-width="1"/>
  <text x="260" y="568" font-family="Arial,sans-serif" font-size="11" fill="#555555">I am the Interactive A…</text>
  <line x1="522" y1="550" x2="522" y2="578" stroke="#eeeeee" stroke-width="1"/>
  <text x="530" y="568" font-family="Arial,sans-serif" font-size="11" fill="#555555">✓</text>
  <line x1="622" y1="550" x2="622" y2="578" stroke="#eeeeee" stroke-width="1"/>
  <text x="630" y="568" font-family="Arial,sans-serif" font-size="11" fill="#555555">Edit | Delete</text>
  <rect x="32" y="578" width="706" height="28" fill="white" stroke="#eeeeee" stroke-width="1"/>
  <text x="40" y="596" font-family="Arial,sans-serif" font-size="11" fill="#555555">How can I help you?</text>
  <line x1="252" y1="578" x2="252" y2="606" stroke="#eeeeee" stroke-width="1"/>
  <text x="260" y="596" font-family="Arial,sans-serif" font-size="11" fill="#555555">I can answer questions…</text>
  <line x1="522" y1="578" x2="522" y2="606" stroke="#eeeeee" stroke-width="1"/>
  <text x="530" y="596" font-family="Arial,sans-serif" font-size="11" fill="#555555">✓</text>
  <line x1="622" y1="578" x2="622" y2="606" stroke="#eeeeee" stroke-width="1"/>
  <text x="630" y="596" font-family="Arial,sans-serif" font-size="11" fill="#555555">Edit | Delete</text>
  <rect x="32" y="606" width="706" height="28" fill="#fafafa" stroke="#eeeeee" stroke-width="1"/>
  <text x="40" y="624" font-family="Arial,sans-serif" font-size="11" fill="#555555">What features do you h…</text>
  <line x1="252" y1="606" x2="252" y2="634" stroke="#eeeeee" stroke-width="1"/>
  <text x="260" y="624" font-family="Arial,sans-serif" font-size="11" fill="#555555">I can speak with emoti…</text>
  <line x1="522" y1="606" x2="522" y2="634" stroke="#eeeeee" stroke-width="1"/>
  <text x="530" y="624" font-family="Arial,sans-serif" font-size="11" fill="#555555">✗</text>
  <line x1="622" y1="606" x2="622" y2="634" stroke="#eeeeee" stroke-width="1"/>
  <text x="630" y="624" font-family="Arial,sans-serif" font-size="11" fill="#555555">Edit | Delete</text>
  <rect x="32" y="634" width="706" height="28" fill="white" stroke="#eeeeee" stroke-width="1"/>
  <text x="40" y="652" font-family="Arial,sans-serif" font-size="11" fill="#555555">How do I use this?</text>
  <line x1="252" y1="634" x2="252" y2="662" stroke="#eeeeee" stroke-width="1"/>
  <text x="260" y="652" font-family="Arial,sans-serif" font-size="11" fill="#555555">Type or speak your que…</text>
  <line x1="522" y1="634" x2="522" y2="662" stroke="#eeeeee" stroke-width="1"/>
  <text x="530" y="652" font-family="Arial,sans-serif" font-size="11" fill="#555555">✓</text>
  <line x1="622" y1="634" x2="622" y2="662" stroke="#eeeeee" stroke-width="1"/>
  <text x="630" y="652" font-family="Arial,sans-serif" font-size="11" fill="#555555">Edit | Delete</text>
  <rect x="32" y="662" width="706" height="28" fill="#fafafa" stroke="#eeeeee" stroke-width="1"/>
  <text x="40" y="680" font-family="Arial,sans-serif" font-size="11" fill="#555555">Can you show emotions?</text>
  <line x1="252" y1="662" x2="252" y2="690" stroke="#eeeeee" stroke-width="1"/>
  <text x="260" y="680" font-family="Arial,sans-serif" font-size="11" fill="#555555">Yes, I support happy, …</text>
  <line x1="522" y1="662" x2="522" y2="690" stroke="#eeeeee" stroke-width="1"/>
  <text x="530" y="680" font-family="Arial,sans-serif" font-size="11" fill="#555555">✓</text>
  <line x1="622" y1="662" x2="622" y2="690" stroke="#eeeeee" stroke-width="1"/>
  <text x="630" y="680" font-family="Arial,sans-serif" font-size="11" fill="#555555">Edit | Delete</text>
  <rect x="746" y="148" width="516" height="730" rx="4" fill="#ffffff" stroke="#dddddd" stroke-width="1"/>
  <text x="760" y="176" font-family="Arial,sans-serif" font-size="15" font-weight="bold" fill="#222222">Other Categories</text>
  <text x="760" y="198" font-family="Arial,sans-serif" font-size="11" fill="#888888">Conversational and other non-FAQ videos</text>
  <rect x="760" y="226" width="488" height="28" rx="4" fill="white" stroke="#cccccc" stroke-width="1"/>
  <text x="770" y="244" font-family="Arial,sans-serif" font-size="12" fill="#bbbbbb">All</text>
  <text x="1234" y="244" font-family="Arial,sans-serif" font-size="11" fill="#aaaaaa">&#9660;</text>
  <rect x="760" y="266" width="488" height="78" rx="4" fill="#fafafa" stroke="#e8e8e8" stroke-width="1"/>
  <text x="770" y="288" font-family="Arial,sans-serif" font-size="12" fill="#333333">Category 1: Introduction</text>
  <text x="770" y="308" font-family="Arial,sans-serif" font-size="11" fill="#888888">3 videos generated</text>
  <rect x="1170" y="290" width="70" height="28" rx="5" fill="#e8e8e8" stroke="#cccccc" stroke-width="1"/>
  <text x="1205" y="308" text-anchor="middle" font-family="Arial,sans-serif" font-size="11" fill="#444444">View</text>
  <rect x="760" y="352" width="488" height="78" rx="4" fill="#fafafa" stroke="#e8e8e8" stroke-width="1"/>
  <text x="770" y="374" font-family="Arial,sans-serif" font-size="12" fill="#333333">Category 2: Introduction</text>
  <text x="770" y="394" font-family="Arial,sans-serif" font-size="11" fill="#888888">3 videos generated</text>
  <rect x="1170" y="376" width="70" height="28" rx="5" fill="#e8e8e8" stroke="#cccccc" stroke-width="1"/>
  <text x="1205" y="394" text-anchor="middle" font-family="Arial,sans-serif" font-size="11" fill="#444444">View</text>
  <rect x="760" y="438" width="488" height="78" rx="4" fill="#fafafa" stroke="#e8e8e8" stroke-width="1"/>
  <text x="770" y="460" font-family="Arial,sans-serif" font-size="12" fill="#333333">Category 3: Introduction</text>
  <text x="770" y="480" font-family="Arial,sans-serif" font-size="11" fill="#888888">3 videos generated</text>
  <rect x="1170" y="462" width="70" height="28" rx="5" fill="#e8e8e8" stroke="#cccccc" stroke-width="1"/>
  <text x="1205" y="480" text-anchor="middle" font-family="Arial,sans-serif" font-size="11" fill="#444444">View</text>
  <rect x="760" y="524" width="488" height="78" rx="4" fill="#fafafa" stroke="#e8e8e8" stroke-width="1"/>
  <text x="770" y="546" font-family="Arial,sans-serif" font-size="12" fill="#333333">Category 4: Introduction</text>
  <text x="770" y="566" font-family="Arial,sans-serif" font-size="11" fill="#888888">3 videos generated</text>
  <rect x="1170" y="548" width="70" height="28" rx="5" fill="#e8e8e8" stroke="#cccccc" stroke-width="1"/>
  <text x="1205" y="566" text-anchor="middle" font-family="Arial,sans-serif" font-size="11" fill="#444444">View</text>
</svg>
