<?xml version="1.0" encoding="UTF-8"?>
<svg xmlns="http://www.w3.org/2000/svg" width="1280" height="900" viewBox="0 0 1280 900">
  <rect width="1280" height="900" fill="#ebebeb"/>
  <rect x="14" y="14" width="1260" height="876" rx="12" fill="#c0c0c0"/>
  <rect x="10" y="10" width="1260" height="876" rx="10" fill="white" stroke="#aaaaaa" stroke-width="1.5"/>
  <rect x="10" y="10" width="1260" height="40" rx="10" fill="#dcdcdc"/>
  <rect x="10" y="36" width="1260" height="14" fill="#dcdcdc"/>
  <circle cx="36" cy="30" r="7" fill="white" stroke="#aaa" stroke-width="1.5"/>
  <line x1="32" y1="26" x2="40" y2="34" stroke="#bbb" stroke-width="1.5"/>
  <line x1="40" y1="26" x2="32" y2="34" stroke="#bbb" stroke-width="1.5"/>
  <circle cx="58" cy="30" r="7" fill="white" stroke="#aaa" stroke-width="1.5"/>
  <line x1="54" y1="30" x2="62" y2="30" stroke="#bbb" stroke-width="1.5"/>
  <circle cx="80" cy="30" r="7" fill="white" stroke="#aaa" stroke-width="1.5"/>
  <line x1="76" y1="30" x2="84" y2="30" stroke="#bbb" stroke-width="1.5"/>
  <line x1="80" y1="26" x2="80" y2="34" stroke="#bbb" stroke-width="1.5"/>
  <rect x="100" y="15" width="200" height="30" rx="5" fill="white" stroke="#cccccc" stroke-width="1"/>
  <text x="200" y="34" text-anchor="middle" font-family="Arial,sans-serif" font-size="12" fill="#444">Interactive Avatar Player (Standalone)</text>
  <rect x="10" y="50" width="1260" height="44" fill="#f5f5f5"/>
  <rect x="22" y="60" width="26" height="24" rx="4" fill="#e8e8e8" stroke="#cccccc" stroke-width="1"/>
  <text x="35" y="77" text-anchor="middle" font-family="Arial,sans-serif" font-size="16" fill="#666">&#8592;</text>
  <rect x="52" y="60" width="26" height="24" rx="4" fill="#e8e8e8" stroke="#cccccc" stroke-width="1"/>
  <text x="65" y="77" text-anchor="middle" font-family="Arial,sans-serif" font-size="16" fill="#cccccc">&#8594;</text>
  <rect x="90" y="58" width="1068" height="28" rx="14" fill="white" stroke="#d0d0d0" stroke-width="1"/>
  <rect x="104" y="67" width="8" height="7" rx="1" fill="none" stroke="#999" stroke-width="1"/>
  <path d="M106 67 a2 2 0 0 1 4 0" fill="none" stroke="#999" stroke-width="1"/>
  <text x="624" y="76" text-anchor="middle" font-family="Arial,sans-serif" font-size="13" fill="#555">file:///player.html</text>
  <line x1="10" y1="94" x2="1270" y2="94" stroke="#e0e0e0" stroke-width="1"/>
  <rect x="10" y="94" width="1260" height="792" rx="0" fill="#1c1c1c" stroke="#1c1c1c" stroke-width="1"/>
  <rect x="400" y="325" width="480" height="330" rx="12" fill="#2c2c2c" stroke="#555555" stroke-width="1"/>
  <text x="640" y="355" text-anchor="middle" font-family="Arial,sans-serif" font-size="20" font-weight="bold" fill="#dddddd">Interactive Avatar Player</text>
  <text x="640" y="385" text-anchor="middle" font-family="Arial,sans-serif" font-size="13" fill="#888888">Upload the project data zip to begin</text>
  <rect x="440" y="421" width="400" height="130" rx="8" fill="#363636" stroke="#555555" stroke-width="1"/>
  <rect x="620" y="443" width="40" height="30" rx="3" fill="none" stroke="#777777" stroke-width="2"/>
  <rect x="620" y="439" width="18" height="8" rx="2 2 0 0" fill="none" stroke="#777777" stroke-width="2"/>
  <text x="640" y="531" text-anchor="middle" font-family="Arial,sans-serif" font-size="13" fill="#888888">Click to select ZIP file</text>
  <rect x="440" y="569" width="400" height="8" rx="4" fill="#e0e0e0" stroke="#cccccc" stroke-width="1"/>
  <rect x="440" y="569" width="0" height="8" rx="4" fill="#888888"/>
  <text x="640" y="583" text-anchor="middle" font-family="Arial,sans-serif" font-size="12" fill="#666666">Loading… (shown while uploading ZIP)</text>
</svg>
